<svg width="33" height="33" viewBox="0 0 33 33" xmlns="http://www.w3.org/2000/svg">
<g filter="url(#filter0_d_7653_553)">
<path d="M16.5 0C9.59692 0 4 5.59692 4 12.5C4 19.4031 9.59692 25 16.5 25C23.4031 25 29 19.4031 29 12.5C29 5.59692 23.4031 0 16.5 0Z"/>
<path d="M17.7227 15.0518C18.1654 14.9087 18.7322 15.9964 19.3355 16.4127C19.7884 16.728 20.1352 16.6599 20.1352 16.6599L21.7434 16.6368C21.7434 16.6368 22.5838 16.5849 22.1865 15.9172C22.1536 15.8616 21.9536 15.4222 20.9895 14.5179C19.9815 13.5718 20.1181 13.7251 21.3317 12.0896C22.0712 11.0927 22.3671 10.4838 22.2745 10.2244C22.1856 9.97486 21.6424 10.0397 21.6424 10.0397L19.8305 10.0522C19.6541 10.0527 19.5045 10.1073 19.4365 10.2907C19.4351 10.2925 19.1489 11.0621 18.7674 11.7164C17.9612 13.1005 17.6394 13.1741 17.506 13.0875C17.1999 12.887 17.2773 12.2832 17.2773 11.8539C17.2773 10.5125 17.4773 9.9531 16.8855 9.80863C16.6878 9.76047 16.5433 9.72898 16.0391 9.72435C15.3945 9.71463 14.8472 9.72435 14.5369 9.8767C14.3309 9.97996 14.173 10.2064 14.2688 10.2194C14.3892 10.2356 14.6592 10.2934 14.8036 10.4907C14.9893 10.7463 14.9838 11.3191 14.9838 11.3191C14.9838 11.3191 15.0898 12.8986 14.7337 13.0944C14.4892 13.2287 14.1549 12.9546 13.4358 11.6979C13.0686 11.0552 12.7912 10.3448 12.7912 10.3448C12.7912 10.3448 12.7375 10.2129 12.6403 10.1406C12.5245 10.055 12.3624 10.0277 12.3624 10.0277L10.6427 10.0388C10.6427 10.0388 10.3843 10.0462 10.2893 10.1601C10.2051 10.261 10.2824 10.4694 10.2824 10.4694C10.2824 10.4694 11.6294 13.6557 13.1547 15.2606C14.5531 16.734 16.1423 16.6363 16.1423 16.6363H16.8624C16.8624 16.6363 17.0795 16.6113 17.1907 16.4918C17.2944 16.3807 17.2898 16.1719 17.2898 16.1719C17.2898 16.1719 17.2754 15.1953 17.7227 15.0518Z" fill="#030A1A"/>
</g>
<defs>
<filter id="filter0_d_7653_553" x="0" y="0" width="33" height="33" filterUnits="userSpaceOnUse" color-interpolation-filters="sRGB">
<feFlood flood-opacity="0" result="BackgroundImageFix"/>
<feColorMatrix in="SourceAlpha" type="matrix" values="0 0 0 0 0 0 0 0 0 0 0 0 0 0 0 0 0 0 127 0" result="hardAlpha"/>
<feOffset dy="4"/>
<feGaussianBlur stdDeviation="2"/>
<feComposite in2="hardAlpha" operator="out"/>
<feColorMatrix type="matrix" values="0 0 0 0 0 0 0 0 0 0 0 0 0 0 0 0 0 0 0.25 0"/>
<feBlend mode="normal" in2="BackgroundImageFix" result="effect1_dropShadow_7653_553"/>
<feBlend mode="normal" in="SourceGraphic" in2="effect1_dropShadow_7653_553" result="shape"/>
</filter>
</defs>
</svg>
